# xmcd
#
# Track frame offsets:
# 150
# 16354
# 32250
# 53330
# 65866
# 81846
# 88946
# 103005
# 122792
#
# Disc length: 1899 seconds
#
# Revision: 0
# Processed by: cddbd v1.4PL0 Copyright (c) Steve Scherf et al.
# Submitted via: Audion 3.0.2 (http://www.panic.com/audion/)
#
DISCID=6d076909
DTITLE=unknown - Rory's CD
DYEAR=1900
DGENRE=
TTITLE0=unknown 1
TTITLE1=unknown 2
TTITLE2=We Ready
TTITLE3=unknown 3
TTITLE4=unknown 4
TTITLE5=unknown 5
TTITLE6=unknown 6
TTITLE7=unknown 7
TTITLE8=unknown 8
EXTD=
EXTT0=
EXTT1=
EXTT2=
EXTT3=
EXTT4=
EXTT5=
EXTT6=
EXTT7=
EXTT8=
PLAYORDER=
